# xmcd CD database file
#
# Track frame offsets:
#	150
#	18509
#	37979
#	59506
#	76684
#	94234
#	113313
#	133592
#	149755
#	161463
#
# Disc length: 2387 seconds
#
# Revision: 0
# Processed by: cddbd v1.5.2PL0 Copyright (c) Steve Scherf et al.
# Submitted via: CDex 1.51
#
DISCID=7a09510a
DTITLE=Veronica Bishop - Dont Be the Other Woman
DYEAR=2010
DGENRE=Jazz
TTITLE0=The Other Woman
TTITLE1=Dignity
TTITLE2=Wine it Up
TTITLE3=Crab Catching
TTITLE4=Rainy Day
TTITLE5=Honky Tonk
TTITLE6=Blind Love
TTITLE7=Dreams to Remember
TTITLE8=Crazy
TTITLE9=I Love Music
EXTD=YEAR: 2010
EXTT0=
EXTT1=
EXTT2=
EXTT3=
EXTT4=
EXTT5=
EXTT6=
EXTT7=
EXTT8=
EXTT9=
PLAYORDER=
